<svg stroke="currentColor" fill="currentColor" xmlns="http://www.w3.org/2000/svg" xmlns:xlink="http://www.w3.org/1999/xlink" width="20" height="18" viewBox="0 0 20 18">
  <defs>
    <clipPath id="clip-path">
      <rect width="20" height="18"/>
    </clipPath>
  </defs>
  <g clip-path="url(#clip-path)">
    <g transform="translate(-2 -3)">
      <path d="M9,11A4,4,0,1,0,5,7,4,4,0,0,0,9,11ZM9,5A2,2,0,1,1,7,7,2,2,0,0,1,9,5Z" />
      <path d="M17,13a3,3,0,1,0-3-3A3,3,0,0,0,17,13Zm0-4a1,1,0,1,1-1,1A1,1,0,0,1,17,9Z"/>
      <path d="M17,14a5,5,0,0,0-3.06,1.05A7,7,0,0,0,2,20a1,1,0,1,0,2,0,5,5,0,0,1,10,0,1,1,0,0,0,2,0,6.9,6.9,0,0,0-.86-3.35A3,3,0,0,1,20,19a1,1,0,1,0,2,0A5,5,0,0,0,17,14Z"/>
    </g>
  </g>
</svg>
