<svg stroke="currentColor" fill="currentColor" xmlns="http://www.w3.org/2000/svg" xmlns:xlink="http://www.w3.org/1999/xlink" width="20" height="20" viewBox="0 0 20 20">
  <defs>
    <clipPath id="clip-path">
      <rect width="20" height="20"/>
    </clipPath>
  </defs>
  <g id="icon-menu-help-desktop" clip-path="url(#clip-path)">
    <g transform="translate(-2 -2)">
      <path d="M12,2A10,10,0,1,0,22,12,10,10,0,0,0,12,2Zm0,18a8,8,0,1,1,8-8A8,8,0,0,1,12,20Z"/>
      <path d="M12,6A3.5,3.5,0,0,0,8.5,9.5a1,1,0,1,0,2,0A1.5,1.5,0,1,1,12,11a1,1,0,0,0-1,1v2a1,1,0,0,0,2,0V12.84A3.49,3.49,0,0,0,12,6Z"/>
      <circle cx="1" cy="1" r="1" transform="translate(11 16)"/>
    </g>
  </g>
</svg>
