<svg xmlns="http://www.w3.org/2000/svg" width="132" height="28.482" viewBox="0 0 132 28.482">
  <g id="Page-1" transform="translate(-0.595 -0.005)">
    <g id="Esfera_logoPrincipal_rgb_positivo" transform="translate(0.595 0.005)">
      <g id="Group" transform="translate(0 0)">
        <path id="Fill-1" d="M308.9,48.68a5.935,5.935,0,0,1,.417-1.018,5.135,5.135,0,0,1,2.828-2.442,5.962,5.962,0,0,1,2.075-.351,5.471,5.471,0,0,1,1.891.339,5.41,5.41,0,0,1,1.636.933,4.642,4.642,0,0,1,1.148,1.42,5.55,5.55,0,0,1,.4,1.119Zm12.614-4.848h0a9.712,9.712,0,0,0-2.978-2.269,9.476,9.476,0,0,0-4.316-.928,10.156,10.156,0,0,0-3.926.755,9.934,9.934,0,0,0-3.159,2.08,9.488,9.488,0,0,0-2.1,3.171,10.342,10.342,0,0,0-.745,3.94v.905a11.648,11.648,0,0,0,.722,4.193,9.869,9.869,0,0,0,2.034,3.3,9.029,9.029,0,0,0,3.138,2.16,10.239,10.239,0,0,0,3.965.753,9.955,9.955,0,0,0,6.2-1.793,9.072,9.072,0,0,0,2.165-2.372l.265-.423-3.845-1.992-.226.355a3.809,3.809,0,0,1-.936,1,4.653,4.653,0,0,1-1.459.718,7.192,7.192,0,0,1-2.1.269,5.333,5.333,0,0,1-4.018-1.506,5.736,5.736,0,0,1-1.478-3.31h15.105V49.75a9.46,9.46,0,0,0-2.316-5.918Z" transform="translate(-250.154 -33.406)" fill="#0a0b09" fill-rule="evenodd"/>
        <path id="Fill-2" d="M223.434,1.069l-.039.024a3.66,3.66,0,0,0-1.034,2.619V7.749H218.43V11.9h3.931v16.06h4.492V11.9h5.054V7.749h-5.054V4.621c0-.413.026-.465.251-.465h4.8V0h-5.861a3.539,3.539,0,0,0-2.612,1.069" transform="translate(-179.571 0)" fill="#0a0b09" fill-rule="evenodd"/>
        <path id="Fill-3" d="M4.38,16.173H15.836v-4.38H4.38V4.38H16.959V0H0V27.965H16.959v-4.38H4.38V16.173" transform="translate(0 0)" fill="#0a0b09" fill-rule="evenodd"/>
        <path id="Fill-4" d="M126.37,51.085a10.066,10.066,0,0,0-5.366-1.7,9.629,9.629,0,0,1-3.92-.848,1.638,1.638,0,0,1-.845-1.523,1.474,1.474,0,0,1,.229-.827,2.168,2.168,0,0,1,.7-.65,3.857,3.857,0,0,1,1.113-.434,6.211,6.211,0,0,1,1.385-.151,4.509,4.509,0,0,1,2.894.871,3.165,3.165,0,0,1,1.1,1.742l.084.328,4.168-.382-.08-.429a8.069,8.069,0,0,0-.673-2.018,6.448,6.448,0,0,0-1.618-2.083,8.171,8.171,0,0,0-2.55-1.443,10.191,10.191,0,0,0-3.476-.551,9.921,9.921,0,0,0-2.712.366,7.823,7.823,0,0,0-2.377,1.115,5.8,5.8,0,0,0-1.707,1.895,5.275,5.275,0,0,0-.643,2.651v.229a4.989,4.989,0,0,0,1.992,4.27,10.1,10.1,0,0,0,5.333,1.642,9.917,9.917,0,0,1,3.771.787,1.718,1.718,0,0,1,.906,1.694,1.914,1.914,0,0,1-.965,1.736,5.525,5.525,0,0,1-2.992.708,5.115,5.115,0,0,1-3.5-1.139,4.241,4.241,0,0,1-1.335-2.329l-.075-.343-4.158.381.044.4a8.131,8.131,0,0,0,.627,2.34,7.128,7.128,0,0,0,1.726,2.411,8.394,8.394,0,0,0,2.826,1.685,12.662,12.662,0,0,0,7.18.205,7.475,7.475,0,0,0,2.57-1.266,6.156,6.156,0,0,0,1.7-2.055,6.01,6.01,0,0,0,.629-2.736v-.227a5.12,5.12,0,0,0-1.99-4.322" transform="translate(-91.298 -33.694)" fill="#0a0b09" fill-rule="evenodd"/>
        <path id="Fill-5" d="M437.577,41.422a6.861,6.861,0,0,0-1.891,1.656V40.965h-6.4V45.12h2.022V61.18h3.658l.722-.018V50.845a7.628,7.628,0,0,1,.407-2.575,5.928,5.928,0,0,1,1.111-1.946,4.725,4.725,0,0,1,1.657-1.221,5.283,5.283,0,0,1,2.147-.434h1.3V40.4h-1a7.55,7.55,0,0,0-3.736,1.019" transform="translate(-352.914 -33.215)" fill="#0a0b09" fill-rule="evenodd"/>
        <path id="Fill-6" d="M527.349,51.036v.451a7.63,7.63,0,0,1-.4,2.575,5.921,5.921,0,0,1-1.108,1.946,4.7,4.7,0,0,1-1.656,1.215,5.283,5.283,0,0,1-2.147.429,5.07,5.07,0,0,1-3.856-1.57,6.378,6.378,0,0,1-1.5-4.515v-.607a7.49,7.49,0,0,1,.427-2.537,5.669,5.669,0,0,1,1.126-1.914A5.1,5.1,0,0,1,519.91,45.3a5.169,5.169,0,0,1,2.127-.429,4.993,4.993,0,0,1,2.1.446,5.138,5.138,0,0,1,1.693,1.245,5.824,5.824,0,0,1,1.116,1.934A7.55,7.55,0,0,1,527.349,51.036Zm.735-9.881-.735.015v1.948a6.744,6.744,0,0,0-1.857-1.546,7.932,7.932,0,0,0-3.836-.938,9.672,9.672,0,0,0-3.633.7A8.786,8.786,0,0,0,515,43.37a9.547,9.547,0,0,0-2.055,3.25,12.161,12.161,0,0,0-.756,4.339v.607a12.284,12.284,0,0,0,.757,4.379,9.526,9.526,0,0,0,2.042,3.249,8.6,8.6,0,0,0,3.04,2.02,10.1,10.1,0,0,0,3.707.673,7.508,7.508,0,0,0,3.731-1,6.754,6.754,0,0,0,1.886-1.635v2.116h4.38V41.155Z" transform="translate(-421.068 -33.406)" fill="#0a0b09" fill-rule="evenodd"/>
        <path id="Fill-7" d="M646.654,136.954h16.959v-4.38H646.654Z" transform="translate(-531.613 -108.989)" fill="#d6232a" fill-rule="evenodd"/>
      </g>
    </g>
  </g>
</svg>
