<svg xmlns="http://www.w3.org/2000/svg" xmlns:xlink="http://www.w3.org/1999/xlink" width="679" height="768" viewBox="0 0 679 768">
    <defs>
        <linearGradient id="a" x1="88.412%" x2="13.631%" y1="-5.563%" y2="100%">
            <stop offset="0%" stop-color="#EAF0FD" stop-opacity=".25"/>
            <stop offset="100%" stop-color="#EAF0FD"/>
        </linearGradient>
        <linearGradient id="b" x1="46.191%" x2="60.389%" y1="-9.213%" y2="50%">
            <stop offset="0%" stop-color="#CFDDF3"/>
            <stop offset="100%" stop-color="#A1B8E3"/>
        </linearGradient>
        <linearGradient id="c" x1="50%" x2="50%" y1="0%" y2="100%">
            <stop offset="0%" stop-color="#CFDDF3"/>
            <stop offset="100%" stop-color="#A1B8E3"/>
        </linearGradient>
        <linearGradient id="d" x1="50%" x2="50%" y1="0%" y2="100%">
            <stop offset="0%" stop-color="#CFDDF3"/>
            <stop offset="100%" stop-color="#A1B8E3"/>
        </linearGradient>
        <linearGradient id="e" x1="50%" x2="50%" y1="0%" y2="100%">
            <stop offset="0%" stop-color="#CFDDF3"/>
            <stop offset="100%" stop-color="#A1B8E3"/>
        </linearGradient>
        <linearGradient id="f" x1="100%" x2="0%" y1="50%" y2="50%">
            <stop offset="0%" stop-color="#D9E5F6" stop-opacity=".713"/>
            <stop offset="100%" stop-color="#B2C6EA"/>
        </linearGradient>
        <linearGradient id="g" x1="100%" x2="23.229%" y1="70.051%" y2="57.121%">
            <stop offset="0%" stop-color="#ACC5E9"/>
            <stop offset="62.747%" stop-color="#D3E3FB"/>
            <stop offset="100%" stop-color="#EAF2FF"/>
        </linearGradient>
        <linearGradient id="h" x1="77.599%" x2="40.27%" y1="46.916%" y2="55.94%">
            <stop offset="0%" stop-color="#86A8D9"/>
            <stop offset="100%" stop-color="#BCD0F2"/>
        </linearGradient>
        <linearGradient id="i" x1="46.295%" x2="56.721%" y1="5.042%" y2="100%">
            <stop offset="0%" stop-color="#B1FFBE"/>
            <stop offset="44.421%" stop-color="#5CDB8E"/>
            <stop offset="100%" stop-color="#149654"/>
        </linearGradient>
        <path id="j" d="M59.695 173.216c-3.337-23.303-12.515-56.954-40.108-93.198C3.333 58.668 3.28 6.675.933.941 13.687 5.368 36.599 16.78 59.695 48.952c24.21 33.727 8.852 102.51 0 124.264z"/>
        <filter id="k" width="115.2%" height="113.2%" x="-14.2%" y="-6.9%" filterUnits="objectBoundingBox">
            <feGaussianBlur in="SourceAlpha" result="shadowBlurInner1" stdDeviation="9"/>
            <feOffset dy="-8" in="shadowBlurInner1" result="shadowOffsetInner1"/>
            <feComposite in="shadowOffsetInner1" in2="SourceAlpha" k2="-1" k3="1" operator="arithmetic" result="shadowInnerInner1"/>
            <feColorMatrix in="shadowInnerInner1" values="0 0 0 0 0.221483195 0 0 0 0 0.778539541 0 0 0 0 0.610041349 0 0 0 1 0"/>
        </filter>
        <linearGradient id="l" x1="74.087%" x2="83.991%" y1="-9.302%" y2="88.816%">
            <stop offset="0%" stop-color="#B1FFBE"/>
            <stop offset="44.421%" stop-color="#5CDB8E"/>
            <stop offset="100%" stop-color="#149654"/>
        </linearGradient>
        <path id="m" d="M103.636 113.351c-10.308-16.64-28.52-39.19-61.646-57.474C22.475 45.107 5.118 5.475 1.417 1.898c11.206-.949 32.49-.016 60.83 16.689 29.708 17.51 40.898 75.173 41.389 94.764z"/>
        <filter id="n" width="121.7%" height="119.9%" x="-11%" y="-9.9%" filterUnits="objectBoundingBox">
            <feGaussianBlur in="SourceAlpha" result="shadowBlurInner1" stdDeviation="9"/>
            <feOffset dy="-8" in="shadowBlurInner1" result="shadowOffsetInner1"/>
            <feComposite in="shadowOffsetInner1" in2="SourceAlpha" k2="-1" k3="1" operator="arithmetic" result="shadowInnerInner1"/>
            <feColorMatrix in="shadowInnerInner1" values="0 0 0 0 0.221483195 0 0 0 0 0.778539541 0 0 0 0 0.610041349 0 0 0 1 0"/>
        </filter>
        <linearGradient id="o" x1="41.676%" x2="65.1%" y1="5.042%" y2="100%">
            <stop offset="0%" stop-color="#B1FFBE"/>
            <stop offset="44.421%" stop-color="#5CDB8E"/>
            <stop offset="100%" stop-color="#149654"/>
        </linearGradient>
        <path id="p" d="M3.775 125.987c8.127-17.91 23.367-42.735 54.013-65.252C75.841 47.47 88.034 5.748 91.261 1.705c-11.285.514-32.365 4.213-58.446 24.535-27.34 21.303-31.07 80.175-29.04 99.747z"/>
        <filter id="q" width="123.4%" height="118.3%" x="-10.5%" y="-8.9%" filterUnits="objectBoundingBox">
            <feGaussianBlur in="SourceAlpha" result="shadowBlurInner1" stdDeviation="9"/>
            <feOffset dy="-8" in="shadowBlurInner1" result="shadowOffsetInner1"/>
            <feComposite in="shadowOffsetInner1" in2="SourceAlpha" k2="-1" k3="1" operator="arithmetic" result="shadowInnerInner1"/>
            <feColorMatrix in="shadowInnerInner1" values="0 0 0 0 0.221483195 0 0 0 0 0.778539541 0 0 0 0 0.610041349 0 0 0 1 0"/>
        </filter>
        <linearGradient id="r" x1="93.815%" x2="73.531%" y1="41.498%" y2="59.699%">
            <stop offset="0%" stop-color="#47689B"/>
            <stop offset="100%" stop-color="#223762"/>
        </linearGradient>
        <linearGradient id="s" x1="69.855%" x2="115.763%" y1="54.989%" y2="76.448%">
            <stop offset="0%" stop-color="#A5BEEC"/>
            <stop offset="100%" stop-color="#7B90B6"/>
        </linearGradient>
        <radialGradient id="u" cx="74.733%" cy="0%" r="43.955%" fx="74.733%" fy="0%" gradientTransform="matrix(0 .99534 -1.73464 0 .747 -.744)">
            <stop offset="0%" stop-color="#E6F1FF" stop-opacity=".5"/>
            <stop offset="100%" stop-color="#A7C0EB" stop-opacity="0"/>
        </radialGradient>
        <linearGradient id="v" x1="63.747%" x2="24.374%" y1="41.687%" y2="50%">
            <stop offset="0%" stop-color="#B5C9EE" stop-opacity="0"/>
            <stop offset="100%" stop-color="#859BC5"/>
        </linearGradient>
        <path id="t" d="M17.117 80.257S106.99 29.994 129.64 20.775c22.65-9.218 58.41-18.936 63.338-15.379 4.928 3.558 34.926 29.462 44.518 69.258 9.592 39.796 16.262 155.65 27.63 164.384-13.63 10.876-113.23 27.5-135.486 19.991 0-27.271-4.195-95.453 0-108.675-8.407 4.005-63.295 32.117-85.955 38.104-11.103 2.933-34.452-24.48-38.297-51.683-4.001-28.312 11.73-56.518 11.73-56.518z"/>
        <linearGradient id="w" x1="65.993%" x2="65.993%" y1="100%" y2="17.907%">
            <stop offset="0%" stop-color="#8DA6D5"/>
            <stop offset="100%" stop-color="#6A87BD"/>
        </linearGradient>
        <linearGradient id="x" x1="50%" x2="44.454%" y1="100%" y2="11.035%">
            <stop offset="0%" stop-color="#001C44"/>
            <stop offset="100%" stop-color="#89A3D0"/>
        </linearGradient>
        <linearGradient id="z" x1="12.412%" x2="50%" y1="10.857%" y2="61.691%">
            <stop offset="0%" stop-color="#70B8F9"/>
            <stop offset="100%" stop-color="#3D82F0"/>
        </linearGradient>
        <path id="y" d="M61.046 10.562C50.137 16.257 35.179 13.663 16.17 2.78c-4.64 10.527-7.652 17.902-9.037 22.125-6.087 18.548-4.166 28.175 5.76 28.881 13.319.947 29.369 1.42 48.152 1.42 10.908-35.457 10.908-50.339 0-44.644z"/>
        <linearGradient id="A" x1="53.094%" x2="50%" y1="17.003%" y2="100%">
            <stop offset="0%" stop-color="#70B8F9" stop-opacity="0"/>
            <stop offset="100%" stop-color="#0042A6"/>
        </linearGradient>
        <linearGradient id="C" x1="12.15%" x2="31.569%" y1="35.819%" y2="64.665%">
            <stop offset="0%" stop-color="#47689B"/>
            <stop offset="100%" stop-color="#223762"/>
        </linearGradient>
        <linearGradient id="E" x1="7.117%" x2="32.969%" y1="34.116%" y2="63.657%">
            <stop offset="0%" stop-color="#5973A7"/>
            <stop offset="100%" stop-color="#B2C7EE" stop-opacity="0"/>
        </linearGradient>
        <linearGradient id="F" x1="87.513%" x2="59.303%" y1="36.321%" y2="54.3%">
            <stop offset="0%" stop-color="#FFF" stop-opacity=".5"/>
            <stop offset="100%" stop-color="#FFF" stop-opacity="0"/>
        </linearGradient>
        <linearGradient id="G" x1="50%" x2="50%" y1="80.911%" y2="100%">
            <stop offset="0%" stop-color="#B0C8F2" stop-opacity="0"/>
            <stop offset="100%" stop-color="#96B0DA"/>
        </linearGradient>
        <path id="D" d="M36.195 19.782C23.711 37.615 19.9 67.778 28.352 88.55c7.503 18.437 36.84 38.665 43.388 41.414-14.759 0-64.193-2.456-70.547-4.967 5.759 30.323 35.002 79.088 5.759 102.977 21.4 2.427 205.656 4.854 224.825 2.427 19.17-2.427 82.5 7.234 88.131-26.316s-38.875-79.608-52.982-91.184c-14.107-11.575-93.317-61.296-106.808-76.204-13.49-14.909-111.44-34.749-123.923-16.915z"/>
        <linearGradient id="H" x1="31.041%" x2="65.993%" y1="50%" y2="45.481%">
            <stop offset="0%" stop-color="#8DA6D5"/>
            <stop offset="100%" stop-color="#6A87BD"/>
        </linearGradient>
        <linearGradient id="J" x1="67.774%" x2="56.919%" y1="15.023%" y2="50%">
            <stop offset="0%" stop-color="#70A6F9"/>
            <stop offset="100%" stop-color="#3D82F0"/>
        </linearGradient>
        <path id="I" d="M53.114 6.267C61.682 16.409 63.282 21.034 72.54 29.27c9.257 8.237 21.964 11.157 25.642 12.452 3.678 1.294-7.355 9.501-3.678 20.134 3.678 10.633 11.458 26.287 11.458 30.447s-14.548 11.5-28.31 17.693c-13.76 6.193-15.706 11.405-14.112 21.907 1.595 10.502 3.855 24.06 14.113 29.996 6.838 3.957-12.513-3.075-58.053-21.097C.267 97.521-4.567 62.25 5.1 34.987 19.6-5.907 44.547-3.875 53.114 6.267z"/>
        <linearGradient id="K" x1="82.35%" x2="5.424%" y1="43.036%" y2="97.973%">
            <stop offset="0%" stop-color="#023786"/>
            <stop offset="100%" stop-color="#3D82F0"/>
        </linearGradient>
        <linearGradient id="M" x1="60.88%" x2="55.289%" y1="66.355%" y2="39.932%">
            <stop offset="0%" stop-color="#1861BD"/>
            <stop offset="100%" stop-color="#3D82F0"/>
        </linearGradient>
        <linearGradient id="N" x1="0%" y1="50%" y2="50%">
            <stop offset="0%" stop-color="#88A1C8"/>
            <stop offset="34.268%" stop-color="#B7CAE6"/>
            <stop offset="100%" stop-color="#DFEBFF"/>
        </linearGradient>
        <linearGradient id="O" x1="88.36%" x2="50%" y1="24.289%" y2="64.062%">
            <stop offset="0%" stop-color="#F1F7FF"/>
            <stop offset="100%" stop-color="#A7BCDE"/>
        </linearGradient>
        <linearGradient id="Q" x1="53.685%" x2="20.672%" y1="50%" y2="90.998%">
            <stop offset="0%" stop-color="#FFF"/>
            <stop offset="100%" stop-color="#EAEFFF"/>
        </linearGradient>
        <linearGradient id="R" x1="63.352%" x2="33.713%" y1="50%" y2="43.276%">
            <stop offset="0%" stop-color="#FFF" stop-opacity="0"/>
            <stop offset="100%" stop-color="#D8E1F0"/>
        </linearGradient>
        <path id="P" d="M1.736 264.651c6.932-13.878 54.688-142.892 55.17-172.453.483-29.56 9.271-90.193 34.879-89.991 25.607.2 78.585 24.618 87.253 31.149 8.668 6.531 16.685 34.778 16.685 50.393 0 7.71.123 54.14 0 101.314-.117 45.417 14.565 91.506 15.365 93.377-40.455 13.51-198.626 6.665-209.352-13.789z"/>
        <linearGradient id="T" x1="64.48%" x2="41.205%" y1="44.16%" y2="86.267%">
            <stop offset="0%" stop-color="#9BAECF" stop-opacity=".771"/>
            <stop offset="38.697%" stop-color="#CDDBF4" stop-opacity=".664"/>
            <stop offset="100%" stop-color="#FEFFFF" stop-opacity=".583"/>
        </linearGradient>
        <linearGradient id="U" x1="30.771%" x2="74.687%" y1="17.13%" y2="100%">
            <stop offset="0%" stop-color="#F1F7FF"/>
            <stop offset="100%" stop-color="#A7BCDE"/>
        </linearGradient>
        <linearGradient id="W" x1="15.372%" x2="25.87%" y1="36.604%" y2="74.923%">
            <stop offset="0%" stop-color="#FFF"/>
            <stop offset="100%" stop-color="#E9F0FC"/>
        </linearGradient>
        <linearGradient id="X" x1="47.832%" x2="67.452%" y1="57.741%" y2="77.701%">
            <stop offset="0%" stop-color="#FFF" stop-opacity="0"/>
            <stop offset="100%" stop-color="#ABBFD6"/>
        </linearGradient>
        <path id="V" d="M17.222 119.946c13.994 9.113 109.307 35.636 119.901 31.723 10.594-3.914 76.698-84.222 80.407-92.935 3.709-8.713-42.884-56.952-48.451-49.59-5.567 7.362-51.665 65.064-56.84 65.064-5.175 0-60.49-46.663-76.68-49.304-16.19-2.641-28.144 17.217-31.221 27.622-3.079 10.406-1.11 58.308 12.884 67.42z"/>
        <radialGradient id="Z" cx="29.914%" cy="13.364%" r="56.866%" fx="29.914%" fy="13.364%" gradientTransform="matrix(.89758 .24373 -.72366 .81461 .127 -.048)">
            <stop offset="0%" stop-color="#3162AE"/>
            <stop offset="100%" stop-color="#223762"/>
        </radialGradient>
        <path id="aa" d="M148.132 69.036c19.294-6.242 2.367-32.917 9.204-32.917 2.836 0 14.273-2.19 17.236-8.384 6.566-13.728-8.479-25.967-45.903-23.112C64.722 9.5 61.34 75.892 66.745 109.113c5.405 33.223-65.425 134.104-43.1 177.303 22.326 43.2 67.007 26.656 105.024-11.056 38.017-37.713 28.005-165.548 18.04-171.641-9.966-6.094-17.871-28.441 1.423-34.683z"/>
        <filter id="ab" width="105.3%" height="103.9%" x=".7%" y="-4.2%" filterUnits="objectBoundingBox">
            <feGaussianBlur in="SourceAlpha" result="shadowBlurInner1" stdDeviation="11"/>
            <feOffset dx="-14" dy="-12" in="shadowBlurInner1" result="shadowOffsetInner1"/>
            <feComposite in="shadowOffsetInner1" in2="SourceAlpha" k2="-1" k3="1" operator="arithmetic" result="shadowInnerInner1"/>
            <feColorMatrix in="shadowInnerInner1" values="0 0 0 0 0.0404334217 0 0 0 0 0.104773574 0 0 0 0 0.223875135 0 0 0 0.409561821 0"/>
        </filter>
        <linearGradient id="ac" x1="45.025%" x2="52.103%" y1="35.586%" y2="70.638%">
            <stop offset="0%" stop-color="#001630" stop-opacity=".062"/>
            <stop offset="100%" stop-color="#081E41"/>
        </linearGradient>
    </defs>
    <g fill="none" fill-rule="evenodd">
        <path fill="url(#a)" d="M46 0h655v768H46z" transform="translate(-22)"/>
        <g opacity=".2">
            <path stroke="#A1B8E3" stroke-linecap="round" stroke-width="6" d="M536 588c0-27.643 22.98-113.19 54-160"/>
            <path fill="#A1B8E3" d="M575.351 441.178c.888-9.17-.978-17.76-5.596-25.77-6.927-12.015-15.653-19.957-19.49-17.739-3.836 2.218-1.33 13.756 5.597 25.77 4.618 8.01 11.114 13.923 19.49 17.739zM583.47 445.93c7.67 5.09 16.12 7.474 25.351 7.151 13.846-.484 24.945-4.47 24.79-8.904-.154-4.433-11.504-7.634-25.35-7.15-9.23.323-17.494 3.29-24.79 8.904zM568.523 481.053c7.393 5.485 15.707 8.308 24.942 8.47 13.853.242 25.145-3.158 25.222-7.593.077-4.435-11.09-8.227-24.942-8.47-9.235-.16-17.642 2.37-25.222 7.593zM556.351 516.388c7.394 5.485 15.708 8.308 24.943 8.47 13.852.241 25.144-3.158 25.222-7.593.077-4.435-11.09-8.227-24.942-8.47-9.235-.16-17.643 2.37-25.223 7.593zM592.534 422.918c8.563-3.371 15.36-8.935 20.39-16.692 7.546-11.635 10.651-23.026 6.936-25.442-3.716-2.416-12.844 5.058-20.39 16.693-5.03 7.756-7.343 16.237-6.936 25.441zM559.366 476.929c-.877-9.172-4.345-17.248-10.405-24.228-9.089-10.47-19.168-16.599-22.511-13.689-3.344 2.91 1.315 13.758 10.404 24.228 6.06 6.98 13.563 11.543 22.512 13.689zM546.318 513.748c-1.829-9.03-6.12-16.698-12.876-23.006-10.133-9.461-20.796-14.502-23.817-11.257-3.021 3.244 2.743 13.544 12.876 23.006 6.755 6.307 14.694 10.06 23.817 11.257z"/>
        </g>
        <g opacity=".3">
            <path fill="url(#b)" d="M99.955 281.811c-7.282 6.455-34.975-6.455-45.954-26.492-10.98-20.038 9.387-27.17-18.315-59.218-27.703-32.047-45.478-44.32-28.667-97.146C23.831 46.131.606 16.773 31.293 2.992c30.688-13.782 48.36 31.958 44.84 72.19-3.52 40.233 3.68 48.572 33.697 44.402 30.016-4.169 4.71 54.897 4.71 67.79 0 12.893 18.2 36.84 14.425 54.856-3.776 18.017-21.728 33.126-29.01 39.581z" transform="scale(-1 1) rotate(42 -257.434 -12.681)"/>
            <path stroke="url(#c)" stroke-linecap="round" stroke-width="6" d="M82.376 224.16c0-9.812 2.64-40.383 17-59" transform="scale(-1 1) rotate(42 -257.434 -12.681)"/>
            <path stroke="url(#d)" stroke-linecap="round" stroke-width="6" d="M20.519 167.609c0-10.002 27.526-17.023 41-36" transform="rotate(-42 298.453 94.177)"/>
            <path stroke="url(#e)" stroke-linecap="round" stroke-width="6" d="M115.84 327.634c0-4.217-7.163-23.226-14.009-45.25-21.436-68.97-55.99-153.898-55.99-212.75" transform="scale(-1 1) rotate(42 -257.434 -12.681)"/>
        </g>
        <path fill="url(#f)" d="M57.153 73.298c31.048 0 56.217 5.54 56.217 12.375S88.2 98.048 57.153 98.048c-31.047 0-56.216-5.54-56.216-12.375 0-6.834 25.169-12.375 56.216-12.375z" opacity=".7" transform="translate(35 611)"/>
        <path fill="url(#g)" d="M129.257 3.208c4.23 7.53 6.6 15.965 6.6 24.874 0 31.807-30.203 57.591-67.46 57.591C31.14 85.673.937 59.89.937 28.082c0-9.427 2.653-18.325 7.356-26.18C38.178 6.71 97.66 6.4 129.257 3.209z" transform="translate(37.81 621.471)"/>
        <path fill="url(#h)" d="M63.243.952c33.894 0 61.37 6.606 61.37 14.755 0 8.149-27.476 14.755-61.37 14.755-33.893 0-61.37-6.606-61.37-14.755C1.874 7.557 29.35.952 63.244.952z" transform="translate(43.432 611)"/>
        <g>
            <g transform="translate(42.838 443)">
                <use fill="url(#i)" xlink:href="#j"/>
                <use fill="#000" filter="url(#k)" xlink:href="#j"/>
            </g>
            <g transform="translate(-1 526.784)">
                <use fill="url(#l)" xlink:href="#m"/>
                <use fill="#000" filter="url(#n)" xlink:href="#m"/>
            </g>
            <g transform="translate(106.264 516.428)">
                <use fill="url(#o)" xlink:href="#p"/>
                <use fill="#000" filter="url(#q)" xlink:href="#p"/>
            </g>
            <path fill="none" stroke="#489C71" stroke-width="2.4" d="M111.29 633.06l42.827-80.208c-20.218 19.055-32.752 42.628-42.827 80.208z" opacity=".5" style="mix-blend-mode:multiply"/>
        </g>
        <g>
            <path fill="none" stroke="#75A7FF" stroke-width="4" d="M369.199 293.89l51.763-112.006 83.67 16.282 64.358-86.3 106.636-41.987 93.155 60.757" opacity=".4"/>
            <path fill="#FACA39" d="M504.104 212.75c9.134 0 16.538-7.275 16.538-16.25s-7.404-16.25-16.538-16.25-16.539 7.275-16.539 16.25 7.405 16.25 16.539 16.25zM422.104 204.692c9.134 0 16.538-7.404 16.538-16.538s-7.404-16.539-16.538-16.539-16.539 7.405-16.539 16.539 7.405 16.538 16.539 16.538zM569.103 127.75c9.134 0 16.54-7.275 16.54-16.25s-7.406-16.25-16.54-16.25c-9.133 0-16.538 7.275-16.538 16.25s7.405 16.25 16.538 16.25zM675.104 89.75c9.134 0 16.538-7.276 16.538-16.25 0-8.975-7.404-16.25-16.538-16.25s-16.539 7.275-16.539 16.25c0 8.974 7.405 16.25 16.539 16.25z"/>
        </g>
        <g>
            <path fill="url(#r)" d="M43.758 70.679H14.466c-4.072-8.523-6.773-15.827-8.102-21.914-1.993-9.13-4.992-15.922-1.993-28.247C7.37 8.193 41.873 1.208 46.226 5.155c4.353 3.947 3.645 6.06 20.89 15.262 10.418 5.559 29.701 14.518 57.85 26.879 5.483 2.408 9.027 7.85 9.027 13.863 0 5.505-4.39 9.996-9.869 10.095-30.635.555-49.705.832-57.21.832a136.826 136.826 0 0 1-23.156-10.954v9.547z" transform="translate(448.047 641.767)"/>
            <path fill="none" stroke="#D2DDF1" stroke-width="3.2" d="M529.848 678.302c1.056-1.129 4.2-3.155 7.067-4.344 3.583-1.486 6.393-1.638 7.83-.347l.639-2.732-17.135 4.789 1.6 2.634z"/>
            <g transform="translate(301.9 420)">
                <use fill="url(#s)" xlink:href="#t"/>
                <use fill="url(#u)" xlink:href="#t"/>
                <use fill="url(#v)" xlink:href="#t"/>
            </g>
            <path fill="url(#w)" d="M6.785 21.927c5.546-4.211 22.031-18.71 26.246-20.72-7.19 14.4-13.865 43.307-13.865 56.588-6.644-4.333-12.62-8.76-17.927-13.281 0-12.251 1.848-19.78 5.546-22.587z" transform="translate(428.896 544.554)"/>
            <path fill="url(#x)" d="M11.549 1.338c-4.865 3.866-9.606 100.795 0 102.779C21.155 106.1 46.29 83.79 39.958 42.463 33.625 1.136 16.444 6.015 11.548 1.338z" transform="translate(174.902 615.438)"/>
            <g transform="translate(156.76 665.175)">
                <mask id="B" fill="#fff">
                    <use xlink:href="#y"/>
                </mask>
                <use fill="url(#z)" xlink:href="#y"/>
                <path fill="url(#A)" d="M33.953 56.583c3.899-10.161-.458-43.494-8.736-52.81C19.698-2.44 29.79-.443 55.49 9.76c-1.592 15.868-3.402 26.054-5.43 30.558-8.955 19.881-18.046 21.32-16.106 16.264z" mask="url(#B)" opacity=".6" style="mix-blend-mode:multiply"/>
            </g>
            <path fill="url(#C)" d="M99.806 10.717c8.006 4.762 12.658 7.697 22.93 12.531 3.858 1.815-7.235 6.511-18.37 22.01-9.636 13.412 3.904 24.152 0 24.49-5.842.507-6.897-1.455-25.357 4.941-11.084 3.84-30.018 11.164-56.8 21.97a15.453 15.453 0 0 1-16.356-3.063c-4.006-3.753-4.278-10.04-.61-14.129C24.353 58.17 36.45 44.781 41.534 39.303c7.708-3.958 15.63-7.14 23.767-9.544l-6.95-6.51L78.33 1.724c8.98 2.82 16.14 5.818 21.477 8.992z" transform="translate(60 648.855)"/>
            <path fill="none" stroke="#D2DDF1" stroke-width="3.2" d="M109.33 721.945c1.191 1.064 3.324 4.223 4.575 7.102 1.558 3.588 1.716 6.386.365 7.824l2.7.646-5.039-17.215-2.601 1.643zM119.41 716.882c1.19 1.064 3.323 4.223 4.574 7.102 1.558 3.588 1.717 6.385.365 7.824l2.7.646-5.039-17.215-2.6 1.643z"/>
            <path stroke="#D2DDF1" stroke-width="3.2" d="M129.488 712.832c1.191 1.063 3.325 4.223 4.575 7.102 1.558 3.588 1.717 6.385.365 7.823l2.701.646-5.04-17.214-2.6 1.643z"/>
            <g>
                <g transform="translate(184.981 491.897)">
                    <use fill="#B2C7EE" xlink:href="#D"/>
                    <use fill="url(#E)" xlink:href="#D"/>
                    <use fill="url(#F)" xlink:href="#D"/>
                    <use fill="url(#G)" xlink:href="#D"/>
                </g>
                <path fill="url(#H)" d="M1.16 125.307c3.814 17.8 22.278 32.095 55.392 42.886 49.67 16.186 98.583-4.306 108.967 0-16.872-5.496-59.605-17.781-94.172-38.038-12.013.013-35.408-1.603-70.187-4.848z" transform="translate(184.981 491.897)"/>
            </g>
            <g transform="translate(256 101)">
                <mask id="L" fill="#fff">
                    <use xlink:href="#I"/>
                </mask>
                <use fill="url(#J)" xlink:href="#I"/>
                <path fill="url(#K)" d="M33.935 84.838c3.958 4.796 10.746 13.896 19.215 19.025 7.986 4.836 22.134 4.95 30.654 4.95 11.704 0 3.833 10.846-23.613 32.536l-26.256-5.245c-5.126-40.39-5.126-57.478 0-51.266z" mask="url(#L)"/>
                <path fill="none" stroke="#223762" stroke-width="2.4" d="M54.468 33.457c0-3.697 4.593-10.117 8.485-10.117" mask="url(#L)"/>
                <path fill="#223762" d="M69.257 42.99c1.662-.442 2.221-2.782 1.25-5.227-.972-2.446-3.108-4.07-4.77-3.629-1.661.442-2.22 2.782-1.249 5.227.972 2.445 3.107 4.07 4.77 3.628zM93.777 61.85c.882-.665.788.606 1.433 1.826.645 1.22 1.307 3.342 1.591 4.161-3.656 2.757-11.081 1.416-16.236-.54-1.033-.392-2.1-1.688-1.456-2.584.645-.896 1.694-.586 2.791-.457 3.83.448 9.6-.689 11.877-2.407z" mask="url(#L)"/>
            </g>
            <g>
                <path fill="#346CC7" d="M506.27 215.59c-1.338-2.126-2.585-32.6 1.01-36.817 3.597-4.218 12.834-9.395 14.158-8.182 1.325 1.213 4.582 7.783 2.023 9.204-2.56 1.421-7.445 6.4-7.079 8.182.366 1.783 1.119 7.069 3.034 9.205 1.914 2.136-10.021 23.378-13.146 18.409z"/>
                <path fill="#9DB6E2" d="M550.646 155.274c2.916-2.51 16.88-9.385 18.367-4.114.992 3.515-3.595 8.064-13.762 13.65-5.014-4.684-6.549-7.863-4.605-9.536z"/>
                <path fill="#223762" d="M492.894 180.76l57.672-28.36c3.71-1.824 8.181-.599 10.474 2.87 2.226 3.369 1.396 7.919-1.873 10.262l-53.039 38.027c-5.889 4.222-14.046 2.817-18.22-3.139a13.197 13.197 0 0 1-.607-.949c-3.682-6.338-1.586-14.495 4.681-18.218.297-.177.602-.342.912-.494z"/>
                <path fill="url(#M)" d="M9.18 105.512c7.05-8.9 11.502-14.695 13.354-17.386 1.305-1.896-.793-14.352 1.977-19.47 2.77-5.119 4.72-6.733 6.726-9.704.654-.97 3.848-5.788 4.723-8.56 2.315-7.327 3.028-10.83 3.525-14.982.684-5.723 15.898-17.396 17.76-21.497 1.862-4.102 6.089-5.395 8.343 0 2.255 5.394-13.037 19.539-13.037 26.982 0 .447 6.53-9.823 10.592-10.848 3.7 0 3.247 5.15 4.855 12.289 1.569 6.962 10.414 15.424 10.414 24.484 0 5.254.014 9.509 0 10.321-.13 7.729-27.875 29.618-33.931 38.396-4.038 5.852-8.452 11.92-13.244 18.202L9.18 105.512z" transform="translate(482 144)"/>
            </g>
            <g>
                <path fill="url(#N)" d="M24.935 291.085c-3.779 16.532-6.411 26.683-7.897 30.452-2.23 5.653 42.56 12.647 91.459 12.184 42.152-.4 71.201-5.3 79.363-11.124-7.825-7.088-9.799-13.29-10.846-17.7-7.816-9.208-58.509-13.812-152.079-13.812z" transform="translate(177 223)"/>
                <path fill="url(#O)" d="M109.404 4.311c9.887 2.514 32.932 6.219 37.63 6.138 4.699-.082 12.554 34.336 12.062 37.39-.492 3.053-46.549-13.65-49.692-17.609-3.143-3.959-9.887-28.433 0-25.919z" transform="translate(177 223)"/>
                <g transform="translate(177 247.27)">
                    <mask id="S" fill="#fff">
                        <use xlink:href="#P"/>
                    </mask>
                    <use fill="url(#Q)" xlink:href="#P"/>
                    <use fill="url(#R)" xlink:href="#P"/>
                    <path stroke="#FFF" stroke-linecap="square" stroke-width="2.4" d="M21.599 120.847l38.175 190.12M55.755 86.464l50.23 222.48M89.912 35.9l61.28 285.18M21.599 159.276l203.934 56.631M16.576 215.907L220.51 272.54M16.576 104.667l203.934 56.631M16.576 32.866L220.51 89.498" mask="url(#S)" opacity=".43"/>
                    <path fill="url(#T)" d="M191.008 284.4c-33.487-103.356-50.23-160.729-50.23-172.118 0-11.39 18.576-14.13 55.728-8.224L227.681 284.4h-36.673z" mask="url(#S)"/>
                </g>
                <path fill="url(#U)" d="M294.523 42.336c7.303-6.22 17.546-18.641 23.312-26.011 5.767-7.37 37.685 26.203 31.47 34.624-6.214 8.421-18.745 24.046-24.836 28.604-6.09 4.557-37.249-30.996-29.946-37.217z" transform="translate(177 223)"/>
                <g transform="translate(306.34 248.282)">
                    <mask id="Y" fill="#fff">
                        <use xlink:href="#V"/>
                    </mask>
                    <use fill="url(#W)" xlink:href="#V"/>
                    <use fill="url(#X)" xlink:href="#V"/>
                    <path stroke="#FFF" stroke-linecap="square" stroke-width="2.4" d="M-8.821 70.781l132.349 46.4 72.388-103.75M22.856 16.686l45.207 126.41M55.004 16.686l45.207 126.41M108.247 65.227l47.217 123.376M117.289 58.148l68.313 70.79M131.353 30.844l83.382 72.812M145.418 14.663l91.418 54.61" mask="url(#Y)" opacity=".43"/>
                </g>
            </g>
            <g>
                <g transform="translate(142 75)">
                    <use fill="url(#Z)" xlink:href="#aa"/>
                    <use fill="#000" filter="url(#ab)" xlink:href="#aa"/>
                </g>
                <path fill="url(#ac)" fill-opacity=".11" d="M151.43 106.73c0 13.037-24.826 176.791-47.1 189.578-22.276 12.786 68.767 12.204 68.767-12.22 0-24.426-21.668-190.395-21.668-177.358z" transform="translate(142 75)"/>
            </g>
        </g>
    </g>
</svg>
